<svg width="474" height="820" viewBox="0 0 474 820" fill="none" xmlns="http://www.w3.org/2000/svg">
<path d="M0 0H474V797H0V0Z" fill="url(#paint0_linear_86_23)"/>
<g opacity="0.45">
<path d="M419.5 342C438.554 342 454 357.446 454 376.5C454 395.554 438.554 411 419.5 411C400.446 411 385 395.554 385 376.5C385 357.446 400.446 342 419.5 342ZM419.5 344.957C402.079 344.957 387.957 359.079 387.957 376.5C387.957 393.921 402.079 408.043 419.5 408.043C436.921 408.043 451.043 393.921 451.043 376.5C451.043 359.079 436.921 344.957 419.5 344.957Z" fill="#8FC5D6"/>
<path d="M419.5 350.794C433.697 350.794 445.206 362.303 445.206 376.5C445.206 390.697 433.697 402.206 419.5 402.206C405.303 402.206 393.794 390.697 393.794 376.5C393.794 362.303 405.303 350.794 419.5 350.794ZM419.5 352.997C406.52 352.997 395.998 363.52 395.998 376.5C395.998 389.48 406.52 400.002 419.5 400.002C432.48 400.002 443.003 389.48 443.003 376.5C443.003 363.52 432.48 352.997 419.5 352.997Z" fill="#8FC5D6"/>
</g>
<g opacity="0.45">
<path d="M438.5 22C463.077 22 483 41.9233 483 66.5C483 91.0767 463.077 111 438.5 111C413.923 111 394 91.0767 394 66.5C394 41.9233 413.923 22 438.5 22ZM438.5 25.8145C416.03 25.8145 397.814 44.0299 397.814 66.5C397.814 88.9701 416.03 107.186 438.5 107.186C460.97 107.185 479.186 88.9701 479.186 66.5C479.186 44.03 460.97 25.8145 438.5 25.8145Z" fill="#8FC5D6"/>
<path d="M438.5 33.3429C456.812 33.3431 471.656 48.1882 471.656 66.5001C471.656 84.8119 456.812 99.6562 438.5 99.6564C420.188 99.6564 405.343 84.812 405.343 66.5001C405.343 48.1881 420.188 33.3429 438.5 33.3429ZM438.5 36.1847C421.758 36.1847 408.186 49.7577 408.186 66.5001C408.186 83.2424 421.758 96.8145 438.5 96.8146C455.242 96.8146 468.815 83.2425 468.815 66.5001C468.815 49.7577 455.242 36.1847 438.5 36.1847Z" fill="#8FC5D6"/>
</g>
<g opacity="0.45">
<path d="M16 456C32.5685 456 46 469.431 46 486C46 502.569 32.5685 516 16 516C-0.568542 516 -14 502.569 -14 486C-14 469.431 -0.568542 456 16 456ZM16 458.571C0.851681 458.571 -11.4287 470.852 -11.4287 486C-11.4287 501.148 0.851666 513.429 16 513.429C31.1484 513.429 43.4287 501.148 43.4287 486C43.4287 470.852 31.1484 458.571 16 458.571Z" fill="#D0E3E4"/>
<path d="M16.0005 463.647C28.3454 463.647 38.3528 473.655 38.353 486C38.353 498.345 28.3455 508.353 16.0005 508.353C3.6553 508.353 -6.35303 498.345 -6.35303 486C-6.35279 473.655 3.65545 463.647 16.0005 463.647ZM16.0005 465.563C4.71346 465.563 -4.43701 474.713 -4.43701 486C-4.43676 497.287 4.71361 506.437 16.0005 506.437C27.2872 506.437 36.4368 497.287 36.437 486C36.437 474.714 27.2874 465.563 16.0005 465.563Z" fill="#D0E3E4"/>
</g>
<g opacity="0.45">
<path d="M440 523C454.912 523 467 535.088 467 550C467 564.912 454.912 577 440 577C425.088 577 413 564.912 413 550C413 535.088 425.088 523 440 523ZM440 525.314C426.366 525.314 415.315 536.366 415.314 550C415.314 563.634 426.366 574.686 440 574.686C453.633 574.685 464.686 563.634 464.686 550C464.685 536.367 453.633 525.315 440 525.314Z" fill="#D0E3E4"/>
<path d="M440 529.882C451.11 529.882 460.117 538.889 460.118 550C460.118 561.11 451.11 570.118 440 570.118C428.889 570.117 419.882 561.11 419.882 550C419.883 538.889 428.889 529.883 440 529.882ZM440 531.607C429.842 531.607 421.607 539.841 421.607 550C421.607 560.158 429.842 568.393 440 568.393C450.159 568.393 458.394 560.158 458.394 550C458.394 539.841 450.159 531.607 440 531.607Z" fill="#D0E3E4"/>
</g>
<g opacity="0.45">
<path d="M90.5 87C102.374 87.0001 112 96.626 112 108.5C112 120.374 102.374 130 90.5 130C78.626 130 69.0001 120.374 69 108.5C69 96.626 78.626 87 90.5 87ZM90.5 88.8428C79.6437 88.8428 70.8428 97.6437 70.8428 108.5C70.8429 119.356 79.6438 128.157 90.5 128.157C101.356 128.157 110.157 119.356 110.157 108.5C110.157 97.6437 101.356 88.8428 90.5 88.8428Z" fill="#6FB6D0"/>
<path d="M90.5 92.4803C99.3473 92.4804 106.52 99.6526 106.52 108.5C106.52 117.347 99.3473 124.519 90.5 124.519C81.6527 124.519 74.4805 117.347 74.4805 108.5C74.4805 99.6526 81.6527 92.4803 90.5 92.4803ZM90.5 93.8534C82.4112 93.8534 75.8535 100.411 75.8535 108.5C75.8537 116.589 82.4113 123.145 90.5 123.145C98.5885 123.145 105.145 116.588 105.146 108.5C105.146 100.411 98.5886 93.8536 90.5 93.8534Z" fill="#6FB6D0"/>
</g>
<g opacity="0.45">
<path d="M137 562C170.137 562 197 588.863 197 622C197 655.137 170.137 682 137 682C103.863 682 77 655.137 77 622C77 588.863 103.863 562 137 562ZM137 567.143C106.703 567.143 82.1426 591.703 82.1426 622C82.1426 652.297 106.703 676.857 137 676.857C167.297 676.857 191.857 652.297 191.857 622C191.857 591.703 167.297 567.143 137 567.143Z" fill="#D0E3E4"/>
<path d="M137 577.294C161.69 577.294 181.706 597.31 181.706 622C181.706 646.69 161.69 666.706 137 666.706C112.31 666.706 92.294 646.69 92.2939 622C92.2939 597.31 112.31 577.294 137 577.294ZM137 581.126C114.426 581.126 96.126 599.426 96.126 622C96.126 644.574 114.426 662.874 137 662.874C159.574 662.874 177.874 644.574 177.874 622C177.874 599.426 159.574 581.126 137 581.126Z" fill="#D0E3E4"/>
</g>
<g opacity="0.45">
<path d="M309 593C337.167 593 360 615.833 360 644C360 672.167 337.167 695 309 695C280.833 695 258 672.167 258 644C258 615.833 280.833 593 309 593ZM309 597.371C283.248 597.371 262.371 618.248 262.371 644C262.371 669.752 283.248 690.629 309 690.629C334.752 690.629 355.629 669.752 355.629 644C355.629 618.248 334.752 597.371 309 597.371Z" fill="#D0E3E4"/>
<path d="M309 606C329.987 606 347 623.013 347 644C347 664.987 329.987 682 309 682C288.013 682 271 664.987 271 644C271 623.013 288.013 606 309 606ZM309 609.257C289.812 609.257 274.257 624.812 274.257 644C274.257 663.188 289.812 678.743 309 678.743C328.188 678.743 343.743 663.188 343.743 644C343.743 624.812 328.188 609.257 309 609.257Z" fill="#D0E3E4"/>
</g>
<path d="M0 752.533V523C8.71262 569.675 44.937 659.39 120.134 644.856C214.129 626.689 245.294 598.329 329.236 652.389C396.391 695.637 453.726 689.02 474 680.305V819H0V752.533Z" fill="white" stroke="white"/>
<defs>
<linearGradient id="paint0_linear_86_23" x1="371.5" y1="87.4999" x2="37" y2="724.5" gradientUnits="userSpaceOnUse">
<stop offset="0.421101" stop-color="#D0E3E4"/>
<stop offset="0.840351" stop-color="#6FB6D0"/>
</linearGradient>
</defs>
</svg>
