<svg width="32" height="32" viewBox="0 0 32 32" fill="none" xmlns="http://www.w3.org/2000/svg">
<rect width="32" height="32" rx="16" fill="#279FD5"/>
<path d="M13.8 15.2L15.4 16.8L18.6 13.6M23.4 15.2C23.4 16.1455 23.2138 17.0818 22.8519 17.9553C22.4901 18.8289 21.9597 19.6226 21.2912 20.2912C20.6226 20.9597 19.8289 21.4901 18.9553 21.8519C18.0818 22.2138 17.1455 22.4 16.2 22.4C15.2545 22.4 14.3182 22.2138 13.4447 21.8519C12.5711 21.4901 11.7774 20.9597 11.1088 20.2912C10.4402 19.6226 9.9099 18.8289 9.54807 17.9553C9.18623 17.0818 9 16.1455 9 15.2C9 13.2904 9.75857 11.4591 11.1088 10.1088C12.4591 8.75857 14.2904 8 16.2 8C18.1096 8 19.9409 8.75857 21.2912 10.1088C22.6414 11.4591 23.4 13.2904 23.4 15.2Z" fill="black"/>
</svg>
