<svg width="16" height="22" viewBox="0 0 16 22" fill="none" xmlns="http://www.w3.org/2000/svg">
<path fill-rule="evenodd" clip-rule="evenodd" d="M3.4285 0H10.8571L15.9999 5.14286V18.2857C15.9999 18.9169 15.4883 19.4286 14.8571 19.4286H3.4285C2.7973 19.4286 2.28564 18.9169 2.28564 18.2857V1.14286C2.28564 0.511674 2.7973 0 3.4285 0ZM14.2856 5.14286L10.8571 1.71429V4.57143C10.8571 4.88703 11.1129 5.14286 11.4285 5.14286H14.2856ZM12.9754 9.31023C13.1986 9.53337 13.1986 9.8952 12.9754 10.1183L7.99993 15.0938L5.31016 12.4041C5.08702 12.1809 5.08702 11.8191 5.31016 11.5959C5.5333 11.3728 5.89513 11.3728 6.11827 11.5959L7.99993 13.4776L12.1673 9.31023C12.3904 9.08709 12.7523 9.08709 12.9754 9.31023Z" fill="#333333"/>
<path d="M1.14286 3.42859H0V18.8572C0 20.4351 1.2792 21.7143 2.85714 21.7143H13.7143V20.5714H2.85714C1.91034 20.5714 1.14286 19.804 1.14286 18.8572V3.42859Z" fill="#333333"/>
</svg>
