<svg width="40" height="40" viewBox="0 0 40 40" fill="none" xmlns="http://www.w3.org/2000/svg">
<rect width="40" height="40" rx="20" fill="#1E4462"/>
<path d="M29.3894 17.296C30.2965 18.8595 30.75 19.6412 30.75 20.5C30.75 21.3588 30.2965 22.1405 29.3894 23.704L27.2253 27.4343C26.3218 28.9915 25.8701 29.7702 25.1271 30.1976C24.3843 30.625 23.4827 30.625 21.6795 30.625H17.3205C15.5173 30.625 14.6157 30.625 13.8728 30.1976C13.13 29.7702 12.6782 28.9915 11.7747 27.4343L9.6106 23.704C8.70353 22.1405 8.25 21.3588 8.25 20.5C8.25 19.6412 8.70353 18.8595 9.6106 17.296L11.7747 13.5657C12.6782 12.0085 13.13 11.2298 13.8728 10.8024C14.6157 10.375 15.5173 10.375 17.3205 10.375H21.6795C23.4827 10.375 24.3843 10.375 25.1271 10.8024C25.8701 11.2298 26.3218 12.0085 27.2253 13.5657L29.3894 17.296Z" stroke="white" stroke-width="2.5"/>
<path d="M16.125 16L22.875 25" stroke="white" stroke-width="2.5" stroke-linecap="round"/>
</svg>
