<svg width="69" height="69" viewBox="0 0 69 69" fill="none" xmlns="http://www.w3.org/2000/svg">
<g opacity="0.45">
<path d="M34.5 0C53.5538 0 69 15.4462 69 34.5C69 53.5538 53.5538 69 34.5 69C15.4462 69 0 53.5538 0 34.5C0 15.4462 15.4462 0 34.5 0ZM34.5 2.95703C17.0794 2.95709 2.95704 17.0794 2.95703 34.5C2.95703 51.9206 17.0794 66.0429 34.5 66.043C51.9206 66.043 66.043 51.9206 66.043 34.5C66.043 17.0794 51.9206 2.95703 34.5 2.95703Z" fill="#8FC5D6"/>
<path d="M34.5 8.79407C48.6969 8.79416 60.2061 20.3032 60.2061 34.5001C60.206 48.6969 48.6968 60.2061 34.5 60.2062C20.3031 60.2062 8.79404 48.697 8.79395 34.5001C8.79395 20.3032 20.303 8.79407 34.5 8.79407ZM34.5 10.9972C21.52 10.9973 10.998 21.5201 10.998 34.5001C10.9981 47.4801 21.52 58.002 34.5 58.0021C47.4801 58.0021 58.0029 47.4802 58.0029 34.5001C58.0029 21.52 47.4801 10.9972 34.5 10.9972Z" fill="#8FC5D6"/>
</g>
</svg>
