<svg width="25" height="22" viewBox="0 0 25 22" fill="none" xmlns="http://www.w3.org/2000/svg">
<path d="M2.02703 7.58622C2.02703 3.65001 4.6025 0 8.12919 0C10.5766 0 12.3926 1.63762 13.5135 3.96076C14.6344 1.63776 16.4504 0 18.8978 0C22.4249 0 25 3.65062 25 7.58622C25 16.0111 13.5135 22 13.5135 22C13.5135 22 5.77615 18.21 3.00209 11.993H9.8546L10.9438 10.0229L12.216 14.5538L15.1953 10.6562H18.9189V9.28125H14.5344L12.784 11.5712L11.3535 6.47707L9.06432 10.618H2.48638C2.62961 11.0886 2.80311 11.547 3.00209 11.993L0 11.993V10.618L2.48638 10.618C2.19353 9.65614 2.02703 8.64401 2.02703 7.58622Z" fill="#333333"/>
</svg>
