<svg width="60" height="60" viewBox="0 0 60 60" fill="none" xmlns="http://www.w3.org/2000/svg">
<path d="M48.0176 14.6484C50.6543 17.3047 52.6855 20.2051 54.1113 23.3496C55.5371 26.4941 56.25 29.9609 56.25 33.75C56.25 36.1719 55.9375 38.4961 55.3125 40.7227C54.6875 42.9492 53.8086 45.0391 52.6758 46.9922C51.543 48.9453 50.1758 50.7129 48.5742 52.2949C46.9727 53.877 45.2051 55.2441 43.2715 56.3965C41.3379 57.5488 39.248 58.4375 37.002 59.0625C34.7559 59.6875 32.4219 60 30 60C27.5781 60 25.2539 59.6875 23.0273 59.0625C20.8008 58.4375 18.7109 57.5586 16.7578 56.4258C14.8047 55.293 13.0371 53.9258 11.4551 52.3242C9.87305 50.7227 8.50586 48.9551 7.35352 47.0215C6.20117 45.0879 5.3125 42.998 4.6875 40.752C4.0625 38.5059 3.75 36.1719 3.75 33.75C3.75 31.582 4.00391 29.4727 4.51172 27.4219C5.01953 25.3711 5.75195 23.4375 6.70898 21.6211C7.66602 19.8047 8.81836 18.125 10.166 16.582C11.5137 15.0391 13.0176 13.6621 14.6777 12.4512C16.3379 11.2402 18.1445 10.2344 20.0977 9.43359C22.0508 8.63281 24.1016 8.07617 26.25 7.76367V3.75H18.75V0H37.5V3.75H30V7.5C32.7148 7.5 35.3516 7.90039 37.9102 8.70117C40.4688 9.50195 42.8613 10.6934 45.0879 12.2754L51.1816 6.18164L53.8184 8.81836L48.0176 14.6484ZM30 56.25C33.1055 56.25 36.0156 55.6641 38.7305 54.4922C41.4453 53.3203 43.8281 51.709 45.8789 49.6582C47.9297 47.6074 49.541 45.2246 50.7129 42.5098C51.8848 39.7949 52.4805 36.875 52.5 33.75C52.5 30.6445 51.9141 27.7344 50.7422 25.0195C49.5703 22.3047 47.959 19.9219 45.9082 17.8711C43.8574 15.8203 41.4746 14.209 38.7598 13.0371C36.0449 11.8652 33.125 11.2695 30 11.25C26.8945 11.25 23.9844 11.8359 21.2695 13.0078C18.5547 14.1797 16.1719 15.791 14.1211 17.8418C12.0703 19.8926 10.459 22.2754 9.28711 24.9902C8.11523 27.7051 7.51953 30.625 7.5 33.75C7.5 36.8555 8.08594 39.7656 9.25781 42.4805C10.4297 45.1953 12.041 47.5781 14.0918 49.6289C16.1426 51.6797 18.5254 53.291 21.2402 54.4629C23.9551 55.6348 26.875 56.2305 30 56.25ZM48.75 30V33.75C48.75 36.3477 48.2617 38.7793 47.2852 41.0449C46.3086 43.3105 44.9707 45.3027 43.2715 47.0215C41.5723 48.7402 39.5898 50.0781 37.3242 51.0352C35.0586 51.9922 32.6172 52.4805 30 52.5C27.4023 52.5 24.9707 52.0117 22.7051 51.0352C20.4395 50.0586 18.4473 48.7305 16.7285 47.0508C15.0098 45.3711 13.6719 43.3887 12.7148 41.1035C11.7578 38.8184 11.2695 36.377 11.25 33.7793C11.25 32.0605 11.4746 30.4004 11.9238 28.7988C12.373 27.1973 12.998 25.7031 13.7988 24.3164C14.5996 22.9297 15.5762 21.6699 16.7285 20.5371C17.8809 19.4043 19.1504 18.418 20.5371 17.5781C21.9238 16.7383 23.4082 16.1035 24.9902 15.6738C26.5723 15.2441 28.2422 15.0195 30 15H33.75V30H48.75ZM30 48.75C32.0703 48.75 34.0137 48.3594 35.8301 47.5781C37.6465 46.7969 39.2383 45.7324 40.6055 44.3848C41.9727 43.0371 43.0469 41.4453 43.8281 39.6094C44.6094 37.7734 45 35.8203 45 33.75H30V18.75C27.9102 18.75 25.957 19.1406 24.1406 19.9219C22.3242 20.7031 20.7422 21.7773 19.3945 23.1445C18.0469 24.5117 16.9727 26.1133 16.1719 27.9492C15.3711 29.7852 14.9805 31.7383 15 33.8086C15 35.8789 15.3906 37.8223 16.1719 39.6387C16.9531 41.4551 18.0273 43.0371 19.3945 44.3848C20.7617 45.7324 22.3535 46.7969 24.1699 47.5781C25.9863 48.3594 27.9297 48.75 30 48.75Z" fill="white"/>
</svg>
