<svg width="19" height="19" viewBox="0 0 19 19" fill="none" xmlns="http://www.w3.org/2000/svg">
<path d="M16.4456 2.18198C17.6075 3.34387 17.7544 4.4045 17.6547 5.1492C17.6032 5.53375 17.483 5.85185 17.3757 6.07314C17.3224 6.18316 17.2728 6.26758 17.2383 6.32242C17.2261 6.34187 17.2158 6.35775 17.2079 6.36938L7.46864 16.1087C7.40746 16.1698 7.33106 16.2141 7.24766 16.2371L1.39263 17.8495C1.01858 17.9525 0.675051 17.609 0.778052 17.2349L2.39045 11.3799C2.41346 11.2965 2.45771 11.2201 2.51889 11.1589L12.2582 1.41963C12.2698 1.41178 12.2857 1.40148 12.3051 1.38925C12.36 1.35478 12.4444 1.30516 12.5544 1.25183C12.7757 1.14458 13.0938 1.02435 13.4784 0.972856C14.2231 0.873151 15.2837 1.02009 16.4456 2.18198Z" stroke="white"/>
</svg>
