<svg width="25" height="30" viewBox="0 0 25 30" fill="none" xmlns="http://www.w3.org/2000/svg">
<g filter="url(#filter0_d_84_7)">
<path d="M19.3123 9.90833C19.0344 9.54583 18.6961 9.23167 18.3819 8.9175C17.5723 8.1925 16.654 7.67292 15.8806 6.91167C14.0802 5.1475 13.6815 2.23542 14.8294 0C13.6815 0.277917 12.6786 0.90625 11.8206 1.595C8.69106 4.10833 7.45856 8.54292 8.93273 12.3492C8.98106 12.47 9.02939 12.5908 9.02939 12.7479C9.02939 13.0138 8.84814 13.2554 8.60648 13.3521C8.32856 13.4729 8.03856 13.4004 7.80898 13.2071C7.7404 13.1496 7.68304 13.08 7.63981 13.0017C6.27439 11.2738 6.05689 8.79667 6.97523 6.815C4.95731 8.45833 3.85773 11.2375 4.01481 13.8596C4.08731 14.4638 4.15981 15.0679 4.36523 15.6721C4.53439 16.3971 4.86064 17.1221 5.22314 17.7625C6.52814 19.8529 8.78773 21.3513 11.2165 21.6533C13.8023 21.9796 16.5694 21.5083 18.5511 19.72C20.7623 17.7142 21.5356 14.5 20.3998 11.745L20.2427 11.4308C19.989 10.875 19.3123 9.90833 19.3123 9.90833ZM15.494 17.5208C15.1556 17.8108 14.5998 18.125 14.1648 18.2458C12.8115 18.7292 11.4581 18.0525 10.6606 17.255C12.0986 16.9167 12.9565 15.8533 13.2102 14.7779C13.4156 13.8112 13.029 13.0138 12.8719 12.0833C12.7269 11.1892 12.7511 10.4279 13.0773 9.59417C13.3069 10.0533 13.5486 10.5125 13.8386 10.875C14.769 12.0833 16.2311 12.615 16.5452 14.2583C16.5936 14.4275 16.6177 14.5967 16.6177 14.7779C16.654 15.7688 16.219 16.8563 15.494 17.5208Z" fill="url(#paint0_linear_84_7)"/>
</g>
<defs>
<filter id="filter0_d_84_7" x="0" y="0" width="24.9199" height="29.7493" filterUnits="userSpaceOnUse" color-interpolation-filters="sRGB">
<feFlood flood-opacity="0" result="BackgroundImageFix"/>
<feColorMatrix in="SourceAlpha" type="matrix" values="0 0 0 0 0 0 0 0 0 0 0 0 0 0 0 0 0 0 127 0" result="hardAlpha"/>
<feOffset dy="4"/>
<feGaussianBlur stdDeviation="2"/>
<feComposite in2="hardAlpha" operator="out"/>
<feColorMatrix type="matrix" values="0 0 0 0 0 0 0 0 0 0 0 0 0 0 0 0 0 0 0.25 0"/>
<feBlend mode="normal" in2="BackgroundImageFix" result="effect1_dropShadow_84_7"/>
<feBlend mode="normal" in="SourceGraphic" in2="effect1_dropShadow_84_7" result="shape"/>
</filter>
<linearGradient id="paint0_linear_84_7" x1="12.4599" y1="0" x2="12.4599" y2="21.7494" gradientUnits="userSpaceOnUse">
<stop offset="0.365749" stop-color="#EC5638"/>
<stop offset="1" stop-color="#F8E44E"/>
</linearGradient>
</defs>
</svg>
