<svg width="256" height="192" viewBox="0 0 256 192" fill="none" xmlns="http://www.w3.org/2000/svg">
<rect x="0.5" y="0.5" width="255" height="191" rx="11.5" fill="#D0E3E4" stroke="#E3E6EA"/>
<path opacity="0.15" d="M85.4375 141.688C85.4375 142.533 90.0271 143.344 98.1967 143.941C106.366 144.539 117.447 144.875 129 144.875C140.553 144.875 151.634 144.539 159.803 143.941C167.973 143.344 172.562 142.533 172.562 141.688C172.562 140.842 167.973 140.031 159.803 139.434C151.634 138.836 140.553 138.5 129 138.5C117.447 138.5 106.366 138.836 98.1967 139.434C90.0271 140.031 85.4375 140.842 85.4375 141.688Z" fill="#45413C"/>
<path d="M86.5 76.875H171.5V83.25H86.5V76.875Z" fill="#8CA4B8"/>
<path d="M169.375 76.875H88.6251C88.0615 76.875 87.521 77.0989 87.1225 77.4974C86.7239 77.8959 86.5001 78.4364 86.5001 79V81.125C86.4778 81.3014 86.4778 81.4799 86.5001 81.6562C86.6205 81.1887 86.8966 80.7761 87.2829 80.4864C87.6691 80.1967 88.1425 80.0472 88.6251 80.0625H169.375C169.858 80.0472 170.331 80.1967 170.717 80.4864C171.104 80.7761 171.38 81.1887 171.5 81.6562C171.522 81.4799 171.522 81.3014 171.5 81.125V79C171.5 78.4364 171.276 77.8959 170.878 77.4974C170.479 77.0989 169.939 76.875 169.375 76.875Z" fill="#ADC4D9"/>
<path d="M86.5 76.875H171.5V83.25H86.5V76.875Z" stroke="#45413C" stroke-width="0.5" stroke-linecap="round" stroke-linejoin="round"/>
<path d="M88.625 83.25H169.375V137.438C169.375 138.001 169.151 138.542 168.753 138.94C168.354 139.339 167.814 139.562 167.25 139.562H90.75C90.1864 139.562 89.6459 139.339 89.2474 138.94C88.8489 138.542 88.625 138.001 88.625 137.438V83.25Z" fill="white"/>
<path d="M88.625 83.25H169.375V88.0312H88.625V83.25Z" fill="#E0E0E0"/>
<path d="M88.625 83.25H169.375V137.438C169.375 138.001 169.151 138.542 168.753 138.94C168.354 139.339 167.814 139.562 167.25 139.562H90.75C90.1864 139.562 89.6459 139.339 89.2474 138.94C88.8489 138.542 88.625 138.001 88.625 137.438V83.25Z" stroke="#45413C" stroke-width="0.5" stroke-linecap="round" stroke-linejoin="round"/>
<path d="M106.688 71.5625H151.312V139.562H106.688V71.5625Z" fill="white"/>
<path d="M106.688 71.5625H151.312V75.3662H106.688V71.5625Z" fill="#E0E0E0"/>
<path d="M106.688 71.5625H151.312V139.562H106.688V71.5625Z" stroke="#45413C" stroke-width="0.5" stroke-linecap="round" stroke-linejoin="round"/>
<path d="M116.25 116.188H141.75V139.562H116.25V116.188Z" fill="#00B8F0"/>
<path d="M121.435 139.562H132.485L141.75 117.101V116.188H131.061L121.435 139.562Z" fill="#4ACFFF"/>
<path d="M116.25 116.188H141.75V139.562H116.25V116.188Z" stroke="#45413C" stroke-width="0.5" stroke-linecap="round" stroke-linejoin="round"/>
<path d="M114.125 108.75H143.875V116.188H114.125V108.75Z" fill="#8CA4B8"/>
<path d="M141.75 108.75H116.25C115.687 108.75 115.146 108.974 114.748 109.372C114.349 109.771 114.125 110.311 114.125 110.875V114.062C114.115 114.147 114.115 114.233 114.125 114.317C114.193 113.803 114.446 113.331 114.837 112.99C115.229 112.65 115.731 112.464 116.25 112.469H141.75C142.269 112.464 142.771 112.65 143.163 112.99C143.554 113.331 143.808 113.803 143.875 114.317C143.885 114.233 143.885 114.147 143.875 114.062V110.875C143.875 110.311 143.651 109.771 143.253 109.372C142.854 108.974 142.314 108.75 141.75 108.75Z" fill="#ADC4D9"/>
<path d="M114.125 108.75H143.875V116.188H114.125V108.75Z" stroke="#45413C" stroke-width="0.5" stroke-linecap="round" stroke-linejoin="round"/>
<path d="M104.562 65.1875H153.438V71.5625H104.562V65.1875Z" fill="#8CA4B8"/>
<path d="M151.312 65.1875H106.688C106.124 65.1875 105.583 65.4114 105.185 65.8099C104.786 66.2084 104.562 66.7489 104.562 67.3125V69.4375C104.575 69.6184 104.611 69.7969 104.669 69.9688C104.785 69.519 105.045 69.1196 105.41 68.8318C105.774 68.5439 106.223 68.3835 106.688 68.375H151.312C151.795 68.3597 152.268 68.5093 152.655 68.7989C153.041 69.0886 153.317 69.5012 153.438 69.9688C153.46 69.7924 153.46 69.6139 153.438 69.4375V67.3125C153.438 66.7489 153.214 66.2084 152.815 65.8099C152.417 65.4114 151.876 65.1875 151.312 65.1875Z" fill="#ADC4D9"/>
<path d="M104.562 65.1875H153.438V71.5625H104.562V65.1875Z" stroke="#45413C" stroke-width="0.5" stroke-linecap="round" stroke-linejoin="round"/>
<path d="M136.438 85.375H133.25C132.968 85.375 132.698 85.2631 132.499 85.0638C132.299 84.8645 132.188 84.5943 132.188 84.3125V81.125C132.188 80.8432 132.076 80.573 131.876 80.3737C131.677 80.1744 131.407 80.0625 131.125 80.0625H126.875C126.593 80.0625 126.323 80.1744 126.124 80.3737C125.924 80.573 125.812 80.8432 125.812 81.125V84.3125C125.812 84.5943 125.701 84.8645 125.501 85.0638C125.302 85.2631 125.032 85.375 124.75 85.375H121.562C121.281 85.375 121.01 85.4869 120.811 85.6862C120.612 85.8855 120.5 86.1557 120.5 86.4375V90.6875C120.5 90.9693 120.612 91.2395 120.811 91.4388C121.01 91.6381 121.281 91.75 121.562 91.75H124.75C125.032 91.75 125.302 91.8619 125.501 92.0612C125.701 92.2605 125.812 92.5307 125.812 92.8125V96C125.812 96.2818 125.924 96.552 126.124 96.7513C126.323 96.9506 126.593 97.0625 126.875 97.0625H131.125C131.407 97.0625 131.677 96.9506 131.876 96.7513C132.076 96.552 132.188 96.2818 132.188 96V92.8125C132.188 92.5307 132.299 92.2605 132.499 92.0612C132.698 91.8619 132.968 91.75 133.25 91.75H136.438C136.719 91.75 136.99 91.6381 137.189 91.4388C137.388 91.2395 137.5 90.9693 137.5 90.6875V86.4375C137.5 86.1557 137.388 85.8855 137.189 85.6862C136.99 85.4869 136.719 85.375 136.438 85.375Z" fill="#FF6242" stroke="#45413C" stroke-width="0.5" stroke-linecap="round" stroke-linejoin="round"/>
<path d="M95 88.5625H100.312V98.125H95V88.5625Z" fill="#00B8F0"/>
<path d="M96.0626 98.125H99.2501C99.5319 98.125 99.8021 98.0131 100.001 97.8138C100.201 97.6146 100.313 97.3443 100.313 97.0625V89.625C100.306 89.3927 100.224 89.1688 100.079 88.9875L95.3613 97.8488C95.5535 98.0235 95.8029 98.1218 96.0626 98.125Z" fill="#4ACFFF"/>
<path d="M95 103.438H100.312V113H95V103.438Z" fill="#00B8F0"/>
<path d="M96.0626 113H99.2501C99.5319 113 99.8021 112.888 100.001 112.689C100.201 112.49 100.313 112.219 100.313 111.938V104.5C100.306 104.268 100.224 104.044 100.079 103.863L95.3613 112.724C95.5535 112.898 95.8029 112.997 96.0626 113Z" fill="#4ACFFF"/>
<path d="M95 118.312H100.312V127.875H95V118.312Z" fill="#00B8F0"/>
<path d="M96.0626 127.875H99.2501C99.5319 127.875 99.8021 127.763 100.001 127.564C100.201 127.365 100.313 127.094 100.313 126.813V119.375C100.306 119.143 100.224 118.919 100.079 118.738L95.3613 127.599C95.5535 127.773 95.8029 127.872 96.0626 127.875Z" fill="#4ACFFF"/>
<path d="M95 88.5625H100.312V98.125H95V88.5625ZM95 103.438H100.312V113H95V103.438ZM95 118.312H100.312V127.875H95V118.312Z" stroke="#45413C" stroke-width="0.5" stroke-linecap="round" stroke-linejoin="round"/>
<path d="M157.688 88.5625H163V98.125H157.688V88.5625Z" fill="#00B8F0"/>
<path d="M158.75 98.125H161.938C162.219 98.125 162.49 98.0131 162.689 97.8138C162.888 97.6146 163 97.3443 163 97.0625V89.625C162.994 89.3927 162.912 89.1688 162.766 88.9875L158.049 97.8488C158.241 98.0235 158.49 98.1218 158.75 98.125Z" fill="#4ACFFF"/>
<path d="M157.688 103.438H163V113H157.688V103.438Z" fill="#00B8F0"/>
<path d="M158.75 113H161.938C162.219 113 162.49 112.888 162.689 112.689C162.888 112.49 163 112.219 163 111.938V104.5C162.994 104.268 162.912 104.044 162.766 103.863L158.049 112.724C158.241 112.898 158.49 112.997 158.75 113Z" fill="#4ACFFF"/>
<path d="M157.688 118.312H163V127.875H157.688V118.312Z" fill="#00B8F0"/>
<path d="M158.75 127.875H161.938C162.219 127.875 162.49 127.763 162.689 127.564C162.888 127.365 163 127.094 163 126.813V119.375C162.994 119.143 162.912 118.919 162.766 118.738L158.049 127.599C158.241 127.773 158.49 127.872 158.75 127.875Z" fill="#4ACFFF"/>
<path d="M129 116.188V139.562M157.688 88.5625H163V98.125H157.688V88.5625ZM157.688 103.438H163V113H157.688V103.438ZM157.688 118.312H163V127.875H157.688V118.312Z" stroke="#45413C" stroke-width="0.5" stroke-linecap="round" stroke-linejoin="round"/>
</svg>
