<svg width="24" height="25" viewBox="0 0 24 25" fill="none" xmlns="http://www.w3.org/2000/svg">
<path d="M6.19238 17.1033H10.7924M6.19238 11.3561H15.3924" stroke="white" stroke-linecap="round"/>
<path d="M6.76345 24C5.41608 23.9713 4.49608 23.8851 3.60483 23.6265C2.39813 23.3103 1.51739 22.2472 1.25883 20.7529C0.931076 19.3448 1.04608 15.8678 1.01727 11.7298C1.01965 8.51964 0.873564 5.43663 1.39106 3.68374C1.70732 3.10901 1.96607 1.01129 6.24984 1.04003C6.96859 1.01129 14.5873 0.953818 15.7948 1.06876C19.8199 1.15498 20.2224 3.22396 20.4524 5.17801C20.5982 6.6148 20.5674 8.91367 20.5674 11.3562M6.19234 1.01129C6.53734 2.87913 6.50859 4.08603 7.77359 4.3734C8.31984 4.4596 9.56793 4.4573 10.9073 4.4596C12.1029 4.46166 13.3223 4.47244 13.8686 4.34466C15.2198 4.02857 15.0761 2.36188 15.4211 1.01129" stroke="white" stroke-linecap="round"/>
<path d="M19.1462 15.2355C17.566 16.8447 14.5205 19.7183 14.5205 19.9195C14.2749 20.2606 14.0608 20.9539 13.9171 21.9309C13.7367 22.8367 13.5206 23.6264 13.7735 23.8563C14.0264 24.0862 14.9785 23.8924 15.9857 23.6839C16.7902 23.5976 17.5372 23.3103 17.9107 23.023C18.4566 22.54 22.1629 18.7988 22.5939 18.3103C22.9099 17.8793 22.9387 17.0746 22.6628 16.5861C22.5076 16.2413 21.5308 15.3217 21.2148 15.0631C20.6402 14.7182 19.8357 14.6607 19.1462 15.2355Z" stroke="white" stroke-linecap="round"/>
</svg>
